<svg xmlns="http://www.w3.org/2000/svg" viewBox="0 0 128 128" width="128" height="128">
  <defs>
    <linearGradient id="bg" x1="20" y1="10" x2="108" y2="118" gradientUnits="userSpaceOnUse">
      <stop offset="0" stop-color="#0f172a" />
      <stop offset="1" stop-color="#1e293b" />
    </linearGradient>
    <linearGradient id="bot" x1="26" y1="28" x2="58" y2="70" gradientUnits="userSpaceOnUse">
      <stop offset="0" stop-color="#67e8f9" />
      <stop offset="1" stop-color="#06b6d4" />
    </linearGradient>
    <linearGradient id="human" x1="74" y1="34" x2="104" y2="92" gradientUnits="userSpaceOnUse">
      <stop offset="0" stop-color="#fbbf24" />
      <stop offset="1" stop-color="#f97316" />
    </linearGradient>
    <linearGradient id="arrow" x1="56" y1="61" x2="86" y2="61" gradientUnits="userSpaceOnUse">
      <stop offset="0" stop-color="#f8fafc" />
      <stop offset="1" stop-color="#fecaca" />
    </linearGradient>
  </defs>

  <rect x="8" y="8" width="112" height="112" rx="28" fill="url(#bg)" />
  <rect x="8" y="8" width="112" height="112" rx="28" fill="none" stroke="#f8fafc" stroke-width="8" />
  <rect x="14" y="14" width="100" height="100" rx="22" fill="none" stroke="#22d3ee" stroke-opacity="0.35" stroke-width="2" />

  <rect x="24" y="37" width="34" height="28" rx="9" fill="url(#bot)" />
  <rect x="30" y="47" width="8" height="6" rx="2" fill="#082f49" />
  <rect x="44" y="47" width="8" height="6" rx="2" fill="#082f49" />
  <rect x="34" y="57" width="14" height="4" rx="2" fill="#082f49" />
  <rect x="39" y="30" width="4" height="8" rx="2" fill="#67e8f9" />
  <circle cx="41" cy="27" r="4" fill="#bae6fd" />

  <circle cx="89" cy="44" r="10" fill="#f8fafc" />
  <path d="M73 78c0-9.39 7.61-17 17-17s17 7.61 17 17v8H73z" fill="url(#human)" />
  <path d="M79 43c2-6.5 18-6.5 20 0" fill="none" stroke="#0f172a" stroke-width="4" stroke-linecap="round" />
  <rect x="73" y="48" width="5" height="11" rx="2.5" fill="#0f172a" />
  <rect x="100" y="48" width="5" height="11" rx="2.5" fill="#0f172a" />

  <path d="M56 61h24" fill="none" stroke="url(#arrow)" stroke-width="8" stroke-linecap="round" />
  <path d="M73 52l12 9-12 9" fill="none" stroke="#ef4444" stroke-width="8" stroke-linecap="round" stroke-linejoin="round" />
</svg>
